<svg xmlns="http://www.w3.org/2000/svg" width="144.73" height="35.359" viewBox="0 0 144.73 35.359"><defs><style>.a{fill:#fff;}.b{fill:#00eeae;}</style></defs><g transform="translate(0 0)"><g transform="translate(-0.03)"><path class="a" d="M211.18,152.136v11.25h-4.425V152.924c0-2.925-1.462-4.65-4.162-4.65-2.662,0-4.39,1.912-4.39,5.174v9.937h-4.42V144.637h4.424v2.523a6.6,6.6,0,0,1,5.736-2.973C208.519,144.187,211.18,147.187,211.18,152.136Zm-27,11.25h4.424V144.637h-4.424Zm92.8-26.735v26.734h4.424V136.65Zm-9.6,26.735h4.424V136.65h-4.424ZM151.825,144.637h4.39V162.26c0,5.625-3.75,9.749-10.124,9.749a10.4,10.4,0,0,1-6.9-2.4l2.438-3.225a6.745,6.745,0,0,0,4.5,1.8c3.337,0,5.7-2.137,5.7-5.887v-2.1a7.47,7.47,0,0,1-6.149,3c-5.062,0-9-4.087-9-9.449,0-5.324,3.937-9.561,9-9.561a7.8,7.8,0,0,1,6.145,2.937Zm.187,9.148a5.42,5.42,0,1,0-5.4,5.588A5.419,5.419,0,0,0,152.011,153.786Zm111.439.188c0,.337,0,.9-.038,1.387H249.086a5.334,5.334,0,0,0,5.665,4.762,6.946,6.946,0,0,0,4.462-1.611l2.213,3.037a10.925,10.925,0,0,1-6.787,2.324c-6.262,0-10.049-4.124-10.049-9.823a9.52,9.52,0,0,1,9.562-9.9c5.7,0,9.3,4.274,9.3,9.823Zm-14.364-1.8h9.842a4.636,4.636,0,0,0-4.892-4.275A4.742,4.742,0,0,0,249.086,152.174Zm-14.717,4.986-4.328-12.522H226.7l-4.328,12.522-4.221-12.522H213.5l6.825,18.748h3.637l4.349-12.463,4.307,12.463H236.3l6.787-18.748H238.59Z" transform="translate(-136.65 -136.65)"/></g><path class="b" d="M310.75,194.87h18.378v18.81h-4.4V199.2H310.75Zm0,15.574v3.236h3.212l6.574-6.883V203.56h-3.212Z" transform="translate(-286.856 -186.913)"/></g></svg>